<?xml version="1.0" encoding="UTF-8"?>
<!DOCTYPE svg PUBLIC "-//W3C//DTD SVG 1.1//EN" "http://www.w3.org/Graphics/SVG/1.1/DTD/svg11.dtd">
<!-- Creator: CorelDRAW X7 -->
<svg xmlns="http://www.w3.org/2000/svg" xml:space="preserve" width="27.6848mm" height="4.1335mm" version="1.1" style="shape-rendering:geometricPrecision; text-rendering:geometricPrecision; image-rendering:optimizeQuality; fill-rule:evenodd; clip-rule:evenodd"
viewBox="0 0 2775 414"
 xmlns:xlink="http://www.w3.org/1999/xlink">
 <defs>
  <style type="text/css">
   <![CDATA[
    .fil0 {fill:url(#id0);fill-rule:nonzero}
    .fil1 {fill:url(#id1);fill-rule:nonzero}
    .fil2 {fill:url(#id2);fill-rule:nonzero}
   ]]>
  </style>
  <linearGradient id="id0" gradientUnits="objectBoundingBox" x1="21.3965%" y1="8.18435%" x2="78.6058%" y2="91.8132%">
   <stop offset="0" style="stop-opacity:1; stop-color:#F84119"/>
   <stop offset="0.0392157" style="stop-opacity:1; stop-color:#F84119"/>
   <stop offset="1" style="stop-opacity:0.678431; stop-color:#F89F19"/>
  </linearGradient>
  <linearGradient id="id1" gradientUnits="objectBoundingBox" xlink:href="#id0" x1="21.3965%" y1="8.18435%" x2="78.6058%" y2="91.8132%">
  </linearGradient>
  <linearGradient id="id2" gradientUnits="userSpaceOnUse" xlink:href="#id0" x1="1845.09" y1="33.9037" x2="2099.14" y2="380.337">
  </linearGradient>
 </defs>
 <g id="Слой_x0020_1">
  <metadata id="CorelCorpID_0Corel-Layer"/>
  <path class="fil0" d="M2719 176l-118 0c-6,0 -11,-5 -13,-10l-36 -110 -35 110c-2,6 -8,10 -14,10l-117 0 96 65c5,3 7,10 5,15l-37 110 95 -69c4,-3 11,-3 15,0l95 69 -37 -110c-2,-6 1,-12 5,-15l96 -65zm-108 -27l150 0c5,0 9,2 11,6 4,6 3,14 -3,18l-123 84 47 139c2,4 2,9 -1,13 -4,6 -13,7 -19,3l-121 -88 -120 88c-4,2 -8,3 -12,2 -7,-3 -11,-10 -9,-17l47 -140 -122 -84c-3,-2 -6,-6 -6,-11 0,-7 6,-13 14,-13l150 0 46 -140c1,-4 4,-7 8,-8 7,-3 15,1 17,8l46 140z"/>
  <path class="fil0" d="M388 176l-118 0c-6,0 -11,-5 -12,-10l-36 -110 -36 110c-2,6 -7,10 -13,10l-117 0 95 65c5,3 7,10 5,15l-37 110 95 -69c5,-3 11,-3 16,0l95 69 -37 -110c-2,-6 0,-12 5,-15l95 -65zm-108 -27l151 0c4,0 8,2 11,6 4,6 2,14 -4,18l-122 84 47 139c2,4 1,9 -2,13 -4,6 -12,7 -18,3l-121 -88 -121 88c-3,2 -8,3 -12,2 -7,-3 -10,-10 -8,-17l47 -140 -122 -84c-4,-2 -6,-6 -6,-11 0,-7 6,-13 13,-13l151 0 45 -140c2,-4 5,-7 9,-8 7,-3 14,1 17,8l45 140z"/>
  <path class="fil1" d="M968 176l-117 0c-7,0 -12,-5 -13,-10l-36 -110 -36 110c-2,6 -7,10 -13,10l-117 0 95 65c5,3 7,10 5,15l-37 110 95 -69c5,-3 11,-3 16,0l95 69 -37 -110c-2,-6 0,-12 5,-15l95 -65zm-108 -27l151 0c4,0 8,2 11,6 4,6 2,14 -4,18l-122 84 47 139c2,4 1,9 -2,13 -4,6 -12,7 -18,3l-121 -88 -121 88c-3,2 -8,3 -12,2 -7,-3 -10,-10 -8,-17l47 -140 -122 -84c-4,-2 -6,-6 -6,-11 0,-7 6,-13 13,-13l151 0 45 -140c2,-4 5,-7 9,-8 7,-3 14,1 17,8l45 140z"/>
  <path class="fil1" d="M1555 176l-118 0c-6,0 -11,-5 -13,-10l-35 -110 -36 110c-2,6 -8,10 -14,10l-116 0 95 65c5,3 7,10 5,15l-37 110 95 -69c5,-3 11,-3 15,0l96 69 -37 -110c-2,-6 0,-12 5,-15l95 -65zm-108 -27l151 0c4,0 8,2 10,6 5,6 3,14 -3,18l-122 84 47 139c1,4 1,9 -2,13 -4,6 -12,7 -18,3l-121 -88 -121 88c-4,2 -8,3 -12,2 -7,-3 -11,-10 -8,-17l47 -140 -123 -84c-3,-2 -5,-6 -5,-11 0,-7 6,-13 13,-13l151 0 45 -140c1,-4 4,-7 9,-8 7,-3 14,1 16,8l46 140z"/>
  <path class="fil2" d="M2138 176l-117 0c-7,0 -12,-5 -13,-10l-36 -110 -36 110c-2,6 -7,10 -13,10l-117 0 95 65c5,3 7,10 5,15l-37 110 95 -69c5,-3 11,-3 16,0l95 69 -37 -110c-2,-6 0,-12 5,-15l95 -65zm-108 -27l151 0c4,0 8,2 11,6 4,6 2,14 -4,18l-122 84 47 139c2,4 1,9 -2,13 -4,6 -12,7 -18,3l-121 -88 -121 88c-3,2 -8,3 -12,2 -7,-3 -10,-10 -8,-17l47 -140 -122 -84c-4,-2 -6,-6 -6,-11 0,-7 6,-13 13,-13l151 0 46 -140c1,-4 4,-7 8,-8 7,-3 14,1 17,8l45 140z"/>
 </g>
</svg>
