<?xml version="1.0" encoding="UTF-8"?>
<!DOCTYPE svg PUBLIC "-//W3C//DTD SVG 1.1//EN" "http://www.w3.org/Graphics/SVG/1.1/DTD/svg11.dtd">
<!-- Creator: CorelDRAW X7 -->
<svg xmlns="http://www.w3.org/2000/svg" xml:space="preserve" width="27.7972mm" height="4.1682mm" version="1.1" style="shape-rendering:geometricPrecision; text-rendering:geometricPrecision; image-rendering:optimizeQuality; fill-rule:evenodd; clip-rule:evenodd"
viewBox="0 0 2785 418"
 xmlns:xlink="http://www.w3.org/1999/xlink">
 <defs>
  <style type="text/css">
   <![CDATA[
    .fil2 {fill:url(#id0)}
    .fil0 {fill:url(#id1)}
    .fil1 {fill:url(#id2)}
    .fil3 {fill:url(#id3)}
   ]]>
  </style>
  <linearGradient id="id0" gradientUnits="objectBoundingBox" x1="21.3844%" y1="8.19955%" x2="78.6156%" y2="91.798%">
   <stop offset="0" style="stop-opacity:1; stop-color:#F84119"/>
   <stop offset="0.0392157" style="stop-opacity:1; stop-color:#F84119"/>
   <stop offset="1" style="stop-opacity:0.678431; stop-color:#F89F19"/>
  </linearGradient>
  <linearGradient id="id1" gradientUnits="userSpaceOnUse" xlink:href="#id0" x1="95.6341" y1="34.2524" x2="351.64" y2="383.328">
  </linearGradient>
  <linearGradient id="id2" gradientUnits="userSpaceOnUse" xlink:href="#id0" x1="678.786" y1="34.2924" x2="934.732" y2="383.308">
  </linearGradient>
  <linearGradient id="id3" gradientUnits="userSpaceOnUse" xlink:href="#id0" x1="1850.07" y1="34.2924" x2="2106.01" y2="383.308">
  </linearGradient>
 </defs>
 <g id="Слой_x0020_1">
  <metadata id="CorelCorpID_0Corel-Layer"/>
  <path class="fil0" d="M352 418c0,0 0,0 0,0 -3,0 -6,-1 -9,-3l-119 -87 -120 87c-3,2 -6,3 -9,3 -8,0 -15,-7 -15,-15 0,-2 0,-4 1,-5l47 -139 -122 -83c-4,-2 -6,-7 -6,-12 0,-8 7,-15 15,-15l149 0 45 -139c2,-6 8,-10 15,-10 6,0 12,4 14,10l45 139 149 0c0,0 0,0 0,0 9,0 15,7 15,15 0,5 -2,10 -6,12l-121 83 46 139c1,1 1,3 1,5 0,8 -7,14 -15,15l0 0z"/>
  <path class="fil1" d="M935 418c0,0 0,0 0,0 -3,0 -6,-1 -8,-3l-120 -87 -120 87c-3,2 -6,3 -9,3 -8,0 -15,-7 -15,-15 0,-2 0,-4 1,-5l47 -139 -121 -83c-4,-2 -7,-7 -7,-12 0,-8 7,-15 15,-15l149 0 46 -139c2,-6 7,-10 14,-10 6,0 12,4 14,10l45 139 149 0c9,0 15,7 15,15 0,5 -2,10 -6,12l-121 83 46 139c1,1 1,3 1,5 0,8 -6,14 -15,15l0 0z"/>
  <path class="fil2" d="M1518 418c0,0 0,0 0,0 -3,0 -6,-1 -8,-3l-120 -87 -120 87c-3,2 -6,3 -9,3 -8,0 -15,-7 -15,-15 0,-2 1,-4 1,-5l47 -139 -121 -83c-4,-2 -7,-7 -7,-12 0,-8 7,-15 15,-15l150 0 45 -139c2,-6 7,-10 14,-10 6,0 12,4 14,10l45 139 150 0c8,0 15,7 15,15 0,5 -3,10 -7,12l-121 83 47 139c0,1 0,3 0,5 0,8 -6,14 -15,15l0 0z"/>
  <path class="fil3" d="M2107 418c0,0 0,0 0,0 -4,0 -7,-1 -9,-3l-120 -87 -120 87c-2,2 -5,3 -9,3 -8,0 -15,-7 -15,-15 0,-2 1,-4 1,-5l47 -139 -121 -83c-4,-2 -7,-7 -7,-12 0,-8 7,-15 15,-15l150 0 45 -139c2,-6 8,-10 14,-10 6,0 12,4 14,10l45 139 150 0c8,0 15,7 15,15 0,5 -3,10 -7,12l-121 83 47 139c0,1 0,3 0,5 0,8 -6,14 -14,15l0 0z"/>
  <path class="fil2" d="M2690 418c0,0 0,0 0,0 -3,0 -6,-1 -9,-3l-120 -87 -120 87c-2,2 -5,3 -8,3 -9,0 -15,-7 -15,-15 0,-2 0,-4 0,-5l47 -139 -121 -83c-4,-2 -6,-7 -6,-12 0,-8 6,-15 14,-15l150 0 45 -139c2,-6 8,-10 14,-10 7,0 12,4 14,10l45 139 150 0c8,0 15,7 15,15 0,5 -3,10 -7,12l-121 83 47 139c0,1 1,3 1,5 0,8 -7,14 -15,15l0 0z"/>
 </g>
</svg>
