<svg aria-hidden="true" style="position: absolute; width: 0; height: 0; overflow: hidden;" version="1.1" xmlns="http://www.w3.org/2000/svg" xmlns:xlink="http://www.w3.org/1999/xlink">
<defs>
<symbol id="icon-last" viewBox="0 0 30 32">
<path d="M0.709 0.524c0.692-0.696 1.818-0.699 2.514-0.007l14.014 13.939c0.696 0.692 0.699 1.818 0.007 2.514l-0.177 0.178c-0.692 0.696-1.818 0.699-2.514 0.007l-14.014-13.939c-0.696-0.692-0.699-1.818-0.007-2.514l0.177-0.178z"></path>
<path d="M0.696 30.993c0.692 0.696 1.818 0.699 2.514 0.007l14.016-13.941c0.696-0.692 0.699-1.818 0.007-2.514l-0.178-0.179c-0.692-0.696-1.818-0.699-2.514-0.007l-14.016 13.941c-0.696 0.692-0.699 1.818-0.007 2.514l0.178 0.179z"></path>
<path d="M13.154 0.524c0.692-0.696 1.818-0.699 2.514-0.007l14.014 13.939c0.696 0.692 0.699 1.818 0.007 2.514l-0.177 0.178c-0.692 0.696-1.818 0.699-2.514 0.007l-14.014-13.939c-0.696-0.692-0.699-1.818-0.007-2.514l0.177-0.178z"></path>
<path d="M13.14 30.993c0.692 0.696 1.818 0.699 2.514 0.007l14.016-13.941c0.696-0.692 0.699-1.818 0.007-2.514l-0.178-0.179c-0.692-0.696-1.818-0.699-2.514-0.007l-14.016 13.941c-0.696 0.692-0.699 1.818-0.007 2.514l0.178 0.179z"></path>
</symbol>
<symbol id="icon-next" viewBox="0 0 18 32">
<path d="M0.713 0.524c0.692-0.696 1.818-0.699 2.514-0.007l14.014 13.939c0.696 0.692 0.699 1.818 0.007 2.514l-0.177 0.178c-0.692 0.696-1.818 0.699-2.514 0.007l-14.014-13.939c-0.696-0.692-0.699-1.818-0.007-2.514l0.177-0.178z"></path>
<path d="M0.699 30.993c0.692 0.696 1.818 0.699 2.514 0.007l14.016-13.941c0.696-0.692 0.699-1.818 0.007-2.514l-0.178-0.179c-0.692-0.696-1.818-0.699-2.514-0.007l-14.016 13.941c-0.696 0.692-0.699 1.818-0.007 2.514l0.178 0.179z"></path>
</symbol>
<symbol id="icon-first" viewBox="0 0 30 32">
<path d="M29.495 0.524c-0.692-0.696-1.818-0.699-2.514-0.007l-14.014 13.939c-0.696 0.692-0.699 1.818-0.007 2.514l0.177 0.178c0.692 0.696 1.818 0.699 2.514 0.007l14.014-13.939c0.696-0.692 0.699-1.818 0.007-2.514l-0.177-0.178z"></path>
<path d="M29.509 30.993c-0.692 0.696-1.818 0.699-2.514 0.007l-14.017-13.941c-0.696-0.692-0.699-1.818-0.007-2.514l0.178-0.179c0.692-0.696 1.818-0.699 2.514-0.007l14.016 13.941c0.696 0.692 0.699 1.818 0.007 2.514l-0.178 0.179z"></path>
<path d="M17.051 0.524c-0.692-0.696-1.818-0.699-2.514-0.007l-14.014 13.939c-0.696 0.692-0.699 1.818-0.007 2.514l0.177 0.178c0.692 0.696 1.818 0.699 2.514 0.007l14.014-13.939c0.696-0.692 0.699-1.818 0.007-2.514l-0.177-0.178z"></path>
<path d="M17.065 30.993c-0.692 0.696-1.818 0.699-2.514 0.007l-14.016-13.941c-0.696-0.692-0.699-1.818-0.007-2.514l0.178-0.179c0.692-0.696 1.818-0.699 2.514-0.007l14.016 13.941c0.696 0.692 0.699 1.818 0.007 2.514l-0.178 0.179z"></path>
</symbol>
<symbol id="icon-prev" viewBox="0 0 18 32">
<path d="M17.051 0.524c-0.692-0.696-1.818-0.699-2.514-0.007l-14.014 13.939c-0.696 0.692-0.699 1.818-0.007 2.514l0.177 0.178c0.692 0.696 1.818 0.699 2.514 0.007l14.014-13.939c0.696-0.692 0.699-1.818 0.007-2.514l-0.177-0.178z"></path>
<path d="M17.065 30.993c-0.692 0.696-1.818 0.699-2.514 0.007l-14.016-13.941c-0.696-0.692-0.699-1.818-0.007-2.514l0.178-0.179c0.692-0.696 1.818-0.699 2.514-0.007l14.016 13.941c0.696 0.692 0.699 1.818 0.007 2.514l-0.178 0.179z"></path>
</symbol>
<symbol id="icon-ellip" viewBox="0 0 158 32">
<path d="M0 0h32v32h-32v-32z"></path>
<path d="M63.219 0h32v32h-32v-32z"></path>
<path d="M126.439 0h32v32h-32v-32z"></path>
</symbol>
</defs>
</svg>
