<?xml version="1.0" encoding="UTF-8"?>
<!DOCTYPE svg PUBLIC "-//W3C//DTD SVG 1.1//EN" "http://www.w3.org/Graphics/SVG/1.1/DTD/svg11.dtd">
<!-- Creator: CorelDRAW X7 -->
<svg xmlns="http://www.w3.org/2000/svg" xml:space="preserve" width="27.6636mm" height="4.1335mm" version="1.1" style="shape-rendering:geometricPrecision; text-rendering:geometricPrecision; image-rendering:optimizeQuality; fill-rule:evenodd; clip-rule:evenodd"
viewBox="0 0 2775 415"
 xmlns:xlink="http://www.w3.org/1999/xlink">
 <defs>
  <style type="text/css">
   <![CDATA[
    .fil1 {fill:url(#id0)}
    .fil0 {fill:url(#id1);fill-rule:nonzero}
    .fil4 {fill:url(#id2);fill-rule:nonzero}
    .fil3 {fill:url(#id3);fill-rule:nonzero}
    .fil5 {fill:url(#id4);fill-rule:nonzero}
    .fil2 {fill:url(#id5);fill-rule:nonzero}
   ]]>
  </style>
  <linearGradient id="id0" gradientUnits="userSpaceOnUse" x1="39.8071" y1="144.054" x2="231.471" y2="278.209">
   <stop offset="0" style="stop-opacity:1; stop-color:#F84119"/>
   <stop offset="0.0392157" style="stop-opacity:1; stop-color:#F84119"/>
   <stop offset="1" style="stop-opacity:0.678431; stop-color:#F89F19"/>
  </linearGradient>
  <linearGradient id="id1" gradientUnits="userSpaceOnUse" xlink:href="#id0" x1="2425.2" y1="33.9298" x2="2679.44" y2="380.63">
  </linearGradient>
  <linearGradient id="id2" gradientUnits="userSpaceOnUse" xlink:href="#id0" x1="1257.26" y1="33.9298" x2="1511.51" y2="380.63">
  </linearGradient>
  <linearGradient id="id3" gradientUnits="userSpaceOnUse" xlink:href="#id0" x1="680.412" y1="33.9298" x2="934.66" y2="380.63">
  </linearGradient>
  <linearGradient id="id4" gradientUnits="userSpaceOnUse" xlink:href="#id0" x1="1844.39" y1="33.9298" x2="2098.64" y2="380.63">
  </linearGradient>
  <linearGradient id="id5" gradientUnits="userSpaceOnUse" xlink:href="#id0" x1="95.0898" y1="33.9298" x2="349.338" y2="380.63">
  </linearGradient>
 </defs>
 <g id="Слой_x0020_1">
  <metadata id="CorelCorpID_0Corel-Layer"/>
  <path class="fil0" d="M2719 176l-118 0c-6,0 -12,-4 -13,-10l-36 -110 -36 111c-2,5 -7,9 -13,9l-117 0 95 65c5,4 7,10 5,15l-37 110 96 -69c4,-3 11,-3 15,0l95 69 -37 -110c-2,-5 0,-12 5,-15l96 -65zm-109 -27l151 0c5,0 9,2 11,6 4,6 3,14 -3,18l-123 84 47 140c2,4 2,8 -1,12 -5,6 -13,7 -19,3l-121 -88 -121 88c-3,2 -7,3 -12,2 -7,-2 -10,-10 -8,-17l47 -140 -122 -84c-4,-2 -6,-6 -6,-10 0,-8 6,-14 13,-14l151 0 46 -140c1,-4 4,-7 8,-8 7,-3 15,1 17,8l45 140z"/>
  <path class="fil1" d="M222 51l0 246 -106 74c14,-40 27,-83 40,-123l-107 -74c44,0 90,2 134,-2l39 -121z"/>
  <path class="fil2" d="M388 176l-117 0c-6,0 -12,-4 -13,-10l-36 -110 -36 111c-2,5 -7,9 -13,9l-117 0 95 65c5,4 7,10 5,15l-37 110 95 -69c5,-3 11,-3 16,0l95 69 -37 -110c-2,-5 0,-12 5,-15l95 -65zm-108 -27l151 0c4,0 9,2 11,6 4,6 3,14 -3,18l-123 84 47 140c2,4 1,8 -1,12 -5,6 -13,7 -19,3l-121 -88 -121 88c-3,2 -8,3 -12,2 -7,-2 -10,-10 -8,-17l47 -140 -122 -84c-4,-2 -6,-6 -6,-10 0,-8 6,-14 13,-14l151 0 46 -140c1,-4 4,-7 8,-8 7,-3 15,1 17,8l45 140z"/>
  <path class="fil3" d="M974 176l-118 0c-6,0 -11,-4 -13,-10l-35 -110 -36 111c-2,5 -8,9 -14,9l-117 0 96 65c5,4 7,10 5,15l-37 110 95 -69c4,-3 11,-3 15,0l95 69 -37 -110c-2,-5 1,-12 5,-15l96 -65zm-108 -27l150 0c5,0 9,2 11,6 5,6 3,14 -3,18l-122 84 47 140c1,4 1,8 -2,12 -4,6 -13,7 -18,3l-121 -88 -121 88c-4,2 -8,3 -12,2 -7,-2 -11,-10 -9,-17l47 -140 -122 -84c-3,-2 -6,-6 -6,-10 0,-8 6,-14 14,-14l150 0 46 -140c1,-4 4,-7 8,-8 7,-3 15,1 17,8l46 140z"/>
  <path class="fil4" d="M1551 176l-118 0c-6,0 -11,-4 -13,-10l-36 -110 -36 111c-1,5 -7,9 -13,9l-117 0 95 65c6,4 7,10 5,15l-37 110 96 -69c4,-3 11,-3 15,0l95 69 -37 -110c-2,-5 1,-12 5,-15l96 -65zm-109 -27l151 0c5,0 9,2 11,6 4,6 3,14 -3,18l-123 84 47 140c2,4 2,8 -1,12 -4,6 -13,7 -19,3l-121 -88 -121 88c-3,2 -7,3 -12,2 -7,-2 -10,-10 -8,-17l47 -140 -122 -84c-4,-2 -6,-6 -6,-10 0,-8 6,-14 13,-14l151 0 46 -140c1,-4 4,-7 8,-8 7,-3 15,1 17,8l45 140z"/>
  <path class="fil5" d="M2138 176l-118 0c-6,0 -11,-4 -13,-10l-36 -110 -35 111c-2,5 -8,9 -14,9l-117 0 96 65c5,4 7,10 5,15l-37 110 95 -69c4,-3 11,-3 15,0l95 69 -37 -110c-2,-5 1,-12 5,-15l96 -65zm-108 -27l150 0c5,0 9,2 11,6 5,6 3,14 -3,18l-122 84 47 140c1,4 1,8 -2,12 -4,6 -13,7 -19,3l-121 -88 -120 88c-4,2 -8,3 -12,2 -7,-2 -11,-10 -9,-17l47 -140 -122 -84c-3,-2 -6,-6 -6,-10 0,-8 6,-14 14,-14l150 0 46 -140c1,-4 4,-7 8,-8 7,-3 15,1 17,8l46 140z"/>
 </g>
</svg>
