<?xml version="1.0" encoding="UTF-8"?>
<!DOCTYPE svg PUBLIC "-//W3C//DTD SVG 1.1//EN" "http://www.w3.org/Graphics/SVG/1.1/DTD/svg11.dtd">
<!-- Creator: CorelDRAW X7 -->
<svg xmlns="http://www.w3.org/2000/svg" xml:space="preserve" width="27.7922mm" height="4.1682mm" version="1.1" style="shape-rendering:geometricPrecision; text-rendering:geometricPrecision; image-rendering:optimizeQuality; fill-rule:evenodd; clip-rule:evenodd"
viewBox="0 0 2784 418"
 xmlns:xlink="http://www.w3.org/1999/xlink">
 <defs>
  <style type="text/css">
   <![CDATA[
    .fil1 {fill:url(#id0)}
    .fil0 {fill:url(#id1)}
    .fil2 {fill:url(#id2)}
    .fil4 {fill:url(#id3);fill-rule:nonzero}
    .fil3 {fill:url(#id4);fill-rule:nonzero}
    .fil5 {fill:url(#id5);fill-rule:nonzero}
   ]]>
  </style>
  <linearGradient id="id0" gradientUnits="userSpaceOnUse" x1="95.6169" y1="34.2462" x2="351.577" y2="383.259">
   <stop offset="0" style="stop-opacity:1; stop-color:#F84119"/>
   <stop offset="0.0392157" style="stop-opacity:1; stop-color:#F84119"/>
   <stop offset="1" style="stop-opacity:0.678431; stop-color:#F89F19"/>
  </linearGradient>
  <linearGradient id="id1" gradientUnits="userSpaceOnUse" xlink:href="#id0" x1="1209.11" y1="145.609" x2="1400.53" y2="279.589">
  </linearGradient>
  <linearGradient id="id2" gradientUnits="userSpaceOnUse" xlink:href="#id0" x1="678.664" y1="34.2863" x2="934.563" y2="383.239">
  </linearGradient>
  <linearGradient id="id3" gradientUnits="userSpaceOnUse" xlink:href="#id0" x1="1848.88" y1="35.6285" x2="2102.8" y2="381.877">
  </linearGradient>
  <linearGradient id="id4" gradientUnits="userSpaceOnUse" xlink:href="#id0" x1="1264.32" y1="35.6285" x2="1518.24" y2="381.877">
  </linearGradient>
  <linearGradient id="id5" gradientUnits="userSpaceOnUse" xlink:href="#id0" x1="2434.92" y1="35.6285" x2="2688.83" y2="381.877">
  </linearGradient>
 </defs>
 <g id="Слой_x0020_1">
  <metadata id="CorelCorpID_0Corel-Layer"/>
  <path class="fil0" d="M1391 53l0 246 -106 73c14,-40 27,-83 41,-122l-108 -74c44,0 91,1 134,-3l39 -120z"/>
  <path class="fil1" d="M352 417c0,0 0,0 0,0 -3,0 -6,-1 -9,-2l-119 -87 -120 87c-3,2 -6,3 -9,3 -8,0 -15,-7 -15,-15 0,-2 0,-4 1,-5l47 -139 -122 -83c-4,-2 -6,-7 -6,-12 0,-8 7,-15 15,-15l149 0 45 -139c2,-6 8,-10 15,-10 6,0 12,4 14,10l45 139 149 0c0,0 0,0 0,0 9,0 15,7 15,15 0,5 -2,10 -6,12l-121 83 46 139c1,1 1,3 1,4 0,9 -7,15 -15,15l0 0z"/>
  <path class="fil2" d="M935 417c0,0 0,0 0,0 -3,0 -6,-1 -9,-2l-119 -87 -120 87c-3,1 -6,2 -9,2 -8,0 -15,-6 -15,-14 0,-2 0,-4 1,-5l47 -139 -122 -83c-4,-2 -6,-7 -6,-12 0,-8 7,-15 15,-15l149 0 45 -139c2,-6 8,-10 15,-10 6,0 12,4 14,10l45 139 149 0c9,0 15,7 15,15 0,5 -2,10 -6,12l-121 83 46 139c1,1 1,3 1,4 0,9 -7,15 -15,15l0 0z"/>
  <path class="fil3" d="M1557 177l-117 0c-6,0 -12,-4 -13,-10l-36 -109 -36 110c-2,6 -7,10 -13,9l-117 0 95 66c6,3 7,9 5,15l-37 110 95 -69c5,-4 12,-4 16,0l95 69 -37 -110c-2,-6 0,-12 5,-15l95 -66zm-108 -26l151 0c4,0 8,2 11,6 4,6 2,14 -4,18l-122 84 47 139c2,4 1,9 -1,12 -5,6 -13,8 -19,3l-121 -87 -121 87c-3,3 -7,3 -12,2 -6,-2 -10,-10 -8,-17l47 -139 -122 -84c-3,-2 -6,-6 -6,-11 0,-7 6,-13 14,-13l150 0 46 -140c1,-4 4,-7 8,-9 7,-2 15,2 17,9l45 140z"/>
  <path class="fil4" d="M2142 177l-118 0c-6,0 -11,-4 -13,-10l-35 -109 -36 110c-2,6 -8,10 -13,9l-117 0 95 66c5,3 7,9 5,15l-37 110 95 -69c5,-4 11,-4 16,0l95 69 -37 -110c-2,-6 0,-12 5,-15l95 -66zm-108 -26l151 0c4,0 8,2 10,6 5,6 3,14 -3,18l-122 84 47 139c1,4 1,9 -2,12 -4,6 -12,8 -18,3l-121 -87 -121 87c-3,3 -8,3 -12,2 -7,-2 -11,-10 -8,-17l47 -139 -122 -84c-4,-2 -6,-6 -6,-11 0,-7 6,-13 13,-13l151 0 45 -140c2,-4 5,-7 9,-9 7,-2 14,2 16,9l46 140z"/>
  <path class="fil5" d="M2728 177l-118 0c-6,0 -11,-4 -13,-10l-35 -109 -36 110c-2,6 -8,10 -13,9l-117 0 95 66c5,3 7,9 5,15l-37 110 95 -69c5,-4 11,-4 16,0l95 69 -37 -110c-2,-6 0,-12 5,-15l95 -66zm-108 -26l151 0c4,0 8,2 10,6 5,6 3,14 -3,18l-122 84 47 139c1,4 1,9 -2,12 -4,6 -12,8 -18,3l-121 -87 -121 87c-3,3 -8,3 -12,2 -7,-2 -11,-10 -8,-17l47 -139 -122 -84c-4,-2 -6,-6 -6,-11 0,-7 6,-13 13,-13l151 0 45 -140c2,-4 5,-7 9,-9 7,-2 14,2 16,9l46 140z"/>
 </g>
</svg>
