<?xml version="1.0" encoding="UTF-8"?>
<!DOCTYPE svg PUBLIC "-//W3C//DTD SVG 1.1//EN" "http://www.w3.org/Graphics/SVG/1.1/DTD/svg11.dtd">
<!-- Creator: CorelDRAW X7 -->
<svg xmlns="http://www.w3.org/2000/svg" xml:space="preserve" width="27.7757mm" height="4.1682mm" version="1.1" style="shape-rendering:geometricPrecision; text-rendering:geometricPrecision; image-rendering:optimizeQuality; fill-rule:evenodd; clip-rule:evenodd"
viewBox="0 0 2780 417"
 xmlns:xlink="http://www.w3.org/1999/xlink">
 <defs>
  <style type="text/css">
   <![CDATA[
    .fil1 {fill:url(#id0)}
    .fil0 {fill:url(#id1)}
    .fil2 {fill:url(#id2);fill-rule:nonzero}
    .fil3 {fill:url(#id3);fill-rule:nonzero}
    .fil4 {fill:url(#id4);fill-rule:nonzero}
   ]]>
  </style>
  <linearGradient id="id0" gradientUnits="userSpaceOnUse" x1="95.5601" y1="34.2259" x2="351.368" y2="383.031">
   <stop offset="0" style="stop-opacity:1; stop-color:#F84119"/>
   <stop offset="0.0392157" style="stop-opacity:1; stop-color:#F84119"/>
   <stop offset="1" style="stop-opacity:0.678431; stop-color:#F89F19"/>
  </linearGradient>
  <linearGradient id="id1" gradientUnits="userSpaceOnUse" xlink:href="#id0" x1="624.034" y1="145.522" x2="815.334" y2="279.423">
  </linearGradient>
  <linearGradient id="id2" gradientUnits="objectBoundingBox" xlink:href="#id0" x1="21.3965%" y1="8.18435%" x2="78.6058%" y2="91.8132%">
  </linearGradient>
  <linearGradient id="id3" gradientUnits="userSpaceOnUse" xlink:href="#id0" x1="1850.77" y1="35.6073" x2="2104.53" y2="381.65">
  </linearGradient>
  <linearGradient id="id4" gradientUnits="userSpaceOnUse" xlink:href="#id0" x1="2431.82" y1="35.6073" x2="2685.58" y2="381.65">
  </linearGradient>
 </defs>
 <g id="Слой_x0020_1">
  <metadata id="CorelCorpID_0Corel-Layer"/>
  <path class="fil0" d="M806 53l0 246 -106 73c14,-40 27,-83 40,-123l-107 -73c44,0 90,1 134,-3l39 -120z"/>
  <path class="fil1" d="M352 417c0,0 0,0 0,0 -3,0 -6,-1 -9,-3l-120 -86 -119 86c-3,2 -6,3 -9,3 -8,0 -15,-6 -15,-15 0,-1 0,-3 1,-4l47 -139 -122 -83c-4,-3 -6,-7 -6,-12 0,-8 7,-15 15,-15l149 0 45 -139c2,-6 8,-10 14,-10 7,0 13,4 15,10l45 139 149 0c0,0 0,0 0,0 8,0 15,7 15,15 0,5 -2,9 -7,12l-121 83 47 139c1,1 1,3 1,4 0,8 -7,15 -15,15l0 0z"/>
  <path class="fil2" d="M972 177l-118 0c-6,0 -11,-4 -12,-10l-36 -109 -36 110c-2,6 -7,10 -13,9l-117 0 95 65c5,4 7,10 5,16l-37 109 95 -69c5,-3 11,-3 16,0l95 69 -37 -110c-2,-5 0,-11 5,-15l95 -65zm-108 -26l151 0c4,0 8,2 11,5 4,7 2,15 -4,19l-122 84 47 139c1,4 1,8 -2,12 -4,6 -12,7 -18,3l-121 -87 -121 87c-3,2 -7,3 -12,2 -7,-2 -10,-10 -8,-17l47 -139 -122 -84c-3,-3 -6,-7 -6,-11 0,-7 6,-13 13,-13l151 0 46 -140c1,-4 4,-7 8,-9 7,-2 14,2 17,9l45 140z"/>
  <path class="fil2" d="M1556 177l-117 0c-6,0 -12,-4 -13,-10l-36 -109 -36 110c-1,6 -7,10 -13,9l-117 0 96 65c5,4 6,10 5,16l-37 109 95 -69c4,-3 11,-3 15,0l95 69 -37 -110c-2,-5 0,-11 5,-15l95 -65zm-108 -26l151 0c4,0 8,2 11,5 4,7 2,15 -4,19l-122 84 47 139c2,4 1,8 -1,12 -5,6 -13,7 -19,3l-121 -87 -120 87c-4,2 -8,3 -12,2 -7,-2 -11,-10 -9,-17l47 -139 -122 -84c-3,-3 -5,-7 -5,-11 0,-7 5,-13 13,-13l150 0 46 -140c1,-4 4,-7 8,-9 7,-2 15,2 17,9l45 140z"/>
  <path class="fil3" d="M2144 177l-118 0c-6,0 -11,-4 -13,-10l-35 -109 -36 110c-2,6 -8,10 -14,9l-116 0 95 65c5,4 7,10 5,16l-37 109 95 -69c5,-3 11,-3 15,0l95 69 -37 -110c-2,-5 1,-11 5,-15l96 -65zm-108 -26l150 0c4,0 9,2 11,5 4,7 3,15 -3,19l-122 84 46 139c2,4 2,8 -1,12 -4,6 -13,7 -19,3l-120 -87 -121 87c-3,2 -8,3 -12,2 -7,-2 -11,-10 -8,-17l47 -139 -122 -84c-4,-3 -6,-7 -6,-11 0,-7 6,-13 13,-13l151 0 45 -140c1,-4 4,-7 9,-9 6,-2 14,2 16,9l46 140z"/>
  <path class="fil4" d="M2725 177l-118 0c-6,0 -11,-4 -13,-10l-35 -109 -36 110c-2,6 -8,10 -14,9l-116 0 95 65c5,4 7,10 5,16l-37 109 95 -69c5,-3 11,-3 15,0l95 69 -37 -110c-2,-5 1,-11 5,-15l96 -65zm-108 -26l150 0c4,0 9,2 11,5 4,7 3,15 -3,19l-122 84 47 139c1,4 1,8 -2,12 -4,6 -13,7 -19,3l-120 -87 -121 87c-3,2 -8,3 -12,2 -7,-2 -11,-10 -8,-17l47 -139 -122 -84c-4,-3 -6,-7 -6,-11 0,-7 6,-13 13,-13l151 0 45 -140c1,-4 4,-7 9,-9 7,-2 14,2 16,9l46 140z"/>
 </g>
</svg>
