<?xml version="1.0" encoding="UTF-8"?>
<!DOCTYPE svg PUBLIC "-//W3C//DTD SVG 1.1//EN" "http://www.w3.org/Graphics/SVG/1.1/DTD/svg11.dtd">
<!-- Creator: CorelDRAW X7 -->
<svg xmlns="http://www.w3.org/2000/svg" xml:space="preserve" width="27.7638mm" height="4.1682mm" version="1.1" style="shape-rendering:geometricPrecision; text-rendering:geometricPrecision; image-rendering:optimizeQuality; fill-rule:evenodd; clip-rule:evenodd"
viewBox="0 0 2778 417"
 xmlns:xlink="http://www.w3.org/1999/xlink">
 <defs>
  <style type="text/css">
   <![CDATA[
    .fil0 {fill:url(#id0)}
    .fil5 {fill:url(#id1)}
    .fil1 {fill:url(#id2)}
    .fil3 {fill:url(#id3)}
    .fil2 {fill:url(#id4)}
    .fil4 {fill:url(#id5);fill-rule:nonzero}
   ]]>
  </style>
  <linearGradient id="id0" gradientUnits="userSpaceOnUse" x1="2374.43" y1="145.46" x2="2565.65" y2="279.303">
   <stop offset="0" style="stop-opacity:1; stop-color:#F84119"/>
   <stop offset="0.0392157" style="stop-opacity:1; stop-color:#F84119"/>
   <stop offset="1" style="stop-opacity:0.678431; stop-color:#F89F19"/>
  </linearGradient>
  <linearGradient id="id1" gradientUnits="userSpaceOnUse" xlink:href="#id0" x1="1263.22" y1="34.2512" x2="1518.86" y2="382.847">
  </linearGradient>
  <linearGradient id="id2" gradientUnits="userSpaceOnUse" xlink:href="#id0" x1="95.5192" y1="34.2112" x2="351.218" y2="382.867">
  </linearGradient>
  <linearGradient id="id3" gradientUnits="userSpaceOnUse" xlink:href="#id0" x1="1846.17" y1="34.2512" x2="2101.81" y2="382.847">
  </linearGradient>
  <linearGradient id="id4" gradientUnits="userSpaceOnUse" xlink:href="#id0" x1="677.97" y1="34.2512" x2="933.608" y2="382.847">
  </linearGradient>
  <linearGradient id="id5" gradientUnits="userSpaceOnUse" xlink:href="#id0" x1="2429.59" y1="35.592" x2="2683.24" y2="381.486">
  </linearGradient>
 </defs>
 <g id="Слой_x0020_1">
  <metadata id="CorelCorpID_0Corel-Layer"/>
  <path class="fil0" d="M2556 53l0 245 -106 74c14,-40 28,-83 41,-123l-107 -73c43,-1 90,1 133,-3l39 -120z"/>
  <path class="fil1" d="M352 417c0,0 0,0 0,0 -3,0 -6,-1 -9,-3l-120 -87 -119 87c-3,2 -6,3 -9,3 -8,0 -15,-7 -15,-15 0,-1 0,-3 1,-5l46 -138 -121 -83c-4,-3 -6,-7 -6,-12 0,-8 7,-15 15,-15l149 0 45 -139c2,-6 8,-10 14,-10 7,0 13,4 14,10l46 139 149 0c0,0 0,0 0,0 8,0 15,7 15,15 0,5 -3,9 -7,12l-121 83 47 138c0,2 1,3 1,5 0,8 -7,15 -15,15l0 0z"/>
  <path class="fil2" d="M934 417c0,0 0,0 0,0 -3,0 -6,-1 -9,-3l-119 -87 -120 87c-3,2 -6,3 -9,3 -8,0 -15,-7 -15,-15 0,-1 1,-3 1,-5l47 -138 -121 -83c-4,-3 -7,-7 -7,-12 0,-8 7,-15 15,-15l150 0 45 -139c2,-6 7,-10 14,-10 6,0 12,4 14,10l45 139 149 0c8,0 15,7 15,15 0,5 -2,9 -6,12l-121 83 46 138c1,2 1,3 1,5 0,8 -7,15 -15,15l0 0z"/>
  <path class="fil3" d="M2102 417c0,0 0,0 0,0 -3,0 -6,-1 -8,-3l-120 -87 -120 87c-2,2 -5,3 -9,3 -8,0 -14,-7 -14,-15 0,-1 0,-3 0,-5l47 -138 -121 -83c-4,-3 -6,-7 -6,-12 0,-8 6,-15 14,-15l150 0 45 -139c2,-6 7,-10 14,-10 6,0 12,4 14,10l45 139 149 0c9,0 15,7 15,15 0,5 -2,9 -6,12l-121 83 46 138c1,2 1,3 1,5 0,8 -6,15 -15,15l0 0z"/>
  <path class="fil4" d="M2722 177l-117 0c-6,0 -12,-4 -13,-10l-36 -109 -35 110c-2,6 -8,9 -14,9l-117 0 96 65c5,4 7,10 5,16l-37 109 95 -69c4,-3 11,-3 15,0l95 69 -37 -110c-2,-5 0,-11 5,-15l95 -65zm-108 -26l151 0c4,0 8,2 11,5 4,6 2,15 -4,19l-122 83 47 139c2,4 1,9 -1,13 -5,6 -13,7 -19,3l-121 -88 -120 88c-4,2 -8,3 -12,2 -7,-3 -11,-10 -9,-17l48 -140 -123 -83c-3,-3 -5,-7 -5,-11 0,-7 6,-13 13,-13l150 0 46 -140c1,-4 4,-7 8,-9 7,-2 15,2 17,9l45 140z"/>
  <path class="fil5" d="M1519 417c0,0 0,0 0,0 -3,0 -6,-1 -8,-3l-120 -87 -120 87c-2,2 -5,3 -8,3 -9,0 -15,-7 -15,-15 0,-1 0,-3 0,-5l47 -138 -121 -83c-4,-3 -6,-7 -6,-12 0,-8 6,-15 14,-15l150 0 45 -139c2,-6 8,-10 14,-10 6,0 12,4 14,10l45 139 149 0c9,0 15,7 15,15 0,5 -2,9 -6,12l-121 83 47 138c0,2 0,3 0,5 0,8 -6,15 -15,15l0 0z"/>
 </g>
</svg>
